<svg width="29" height="40" viewBox="0 0 29 40" fill="none" xmlns="http://www.w3.org/2000/svg">
<path d="M26.7553 32.3039C26.5634 32.1009 26.3314 31.94 26.0742 31.8311C25.8169 31.7223 25.5398 31.6679 25.2605 31.6715C24.6991 31.6831 24.1639 31.9111 23.7666 32.308C23.3693 32.7048 23.1407 33.2397 23.1284 33.8011C23.1256 34.0841 23.1804 34.3647 23.2895 34.6259C23.3987 34.887 23.5599 35.1231 23.7633 35.3199C23.9556 35.5236 24.1878 35.6854 24.4453 35.7955C24.7029 35.9055 24.9804 35.9614 25.2605 35.9595C25.5405 35.9629 25.8181 35.9078 26.0755 35.7976C26.3329 35.6875 26.5644 35.5248 26.7553 35.3199C26.955 35.1211 27.1128 34.8842 27.2194 34.6234C27.3259 34.3625 27.3791 34.0829 27.3758 33.8011C27.3785 33.5227 27.325 33.2465 27.2184 32.9892C27.1118 32.7319 26.9543 32.4988 26.7553 32.3039Z" fill="#18181B"/>
<path d="M11.1242 28.6818L2.63909 15.3984H0.849609V35.9595H3.41526V21.1981L10.3145 31.9997H11.9315L18.8307 21.1981V35.9595H21.3963V15.3984H19.6069L11.1242 28.6818Z" fill="#18181B"/>
<g clip-path="url(#clip0_9843_11962)">
<path d="M7.07324 7.07944L11.1996 2.95312M11.1996 2.95312L15.3259 7.07944M11.1996 2.95312V16.511" stroke="#18181B" stroke-width="2" stroke-linecap="round" stroke-linejoin="round"/>
</g>
<defs>
<clipPath id="clip0_9843_11962">
<rect width="14.1474" height="17.0947" fill="white" transform="translate(4.12598)"/>
</clipPath>
</defs>
</svg>
