<svg width="215" height="25" viewBox="0 0 215 25" fill="none" xmlns="http://www.w3.org/2000/svg">
<path d="M154.376 12.8344C153.823 12.3137 153.215 11.8552 152.562 11.467C151.876 11.0567 151.158 10.7011 150.416 10.4037C149.665 10.1023 148.914 9.80652 148.164 9.52187C147.413 9.23722 146.699 8.93583 146.018 8.61769C145.382 8.32605 144.774 7.97766 144.201 7.57676C143.686 7.21666 143.257 6.74677 142.945 6.20094C142.542 5.4729 142.396 4.63013 142.53 3.8088C142.665 2.98746 143.073 2.23551 143.687 1.67443C144.539 0.901745 145.661 0.494826 146.81 0.541409C147.57 0.538468 148.323 0.681526 149.029 0.962804C149.765 1.26679 150.438 1.70386 151.016 2.25211C151.712 2.92481 152.286 3.71444 152.71 4.58513C153.248 5.66594 153.653 6.8083 153.915 7.98699H154.351V0.0335013H153.513C153.385 0.66978 153.028 0.812106 152.341 0.812106C151.621 0.728122 150.907 0.595729 150.204 0.415827C149.136 0.16745 148.045 0.0345924 146.95 0.0195481C145.998 0.0178471 145.05 0.141706 144.131 0.38792C143.247 0.623772 142.401 0.985617 141.62 1.46234C140.864 1.92522 140.233 2.56384 139.778 3.32373C139.308 4.10821 139.067 5.00785 139.08 5.92187C139.071 6.7079 139.232 7.48662 139.552 8.20466C139.846 8.87098 140.273 9.47019 140.807 9.9656C141.363 10.4691 141.968 10.915 142.613 11.2968C143.306 11.7124 144.027 12.0798 144.77 12.3963C145.527 12.72 146.284 13.0354 147.039 13.3423C147.795 13.6493 148.513 13.9786 149.193 14.3247C149.827 14.6422 150.432 15.0158 150.999 15.4409C151.511 15.8251 151.938 16.3105 152.255 16.867C152.574 17.4308 152.737 18.0695 152.726 18.7172C152.737 19.3463 152.613 19.9703 152.363 20.5477C152.113 21.1252 151.744 21.6428 151.278 22.0661C150.313 22.9814 149.073 23.44 147.561 23.4419C146.568 23.4631 145.582 23.2737 144.668 22.8859C143.754 22.4982 142.933 21.9211 142.259 21.1926C140.832 19.7042 139.901 17.6577 139.468 15.053H138.96V23.9833H139.518C139.611 23.6569 139.798 23.3655 140.057 23.1461C140.292 22.9724 140.577 22.8803 140.869 22.8837C141.305 22.9151 141.735 23.0091 142.144 23.1628C142.862 23.391 143.593 23.5774 144.332 23.7209C145.376 23.9177 146.437 24.0112 147.499 24C148.725 24.0126 149.945 23.8173 151.105 23.4223C152.103 23.0927 153.028 22.5713 153.826 21.8875C154.519 21.2823 155.088 20.5476 155.5 19.7247C155.886 18.9533 156.089 18.1034 156.092 17.2409C156.104 16.3889 155.948 15.5429 155.632 14.7516C155.355 14.0301 154.927 13.3763 154.376 12.8344Z" fill="#18181B"/>
<path d="M203.618 22.2475C203.523 22.3944 203.393 22.5157 203.24 22.6009C203.088 22.686 202.916 22.7324 202.741 22.7359C201.835 22.7359 201.331 21.441 201.229 18.8512C201.207 17.777 201.073 16.708 200.83 15.6615C200.627 14.8293 200.263 14.0451 199.758 13.3536C199.247 12.6722 198.556 12.1474 197.763 11.8382C196.766 11.4649 195.715 11.2566 194.651 11.2215C196.997 10.8698 198.765 10.1917 199.953 9.18704C201.142 8.18239 201.735 6.9796 201.731 5.57867C201.731 3.75355 201.068 2.36751 199.741 1.42053C198.466 0.507974 196.437 0.0475089 193.691 0.0251833V0.0112295H182.618V0.474485C183.734 0.507974 184.524 0.658672 184.987 0.926578C185.216 1.05948 185.404 1.2543 185.528 1.48873C185.652 1.72316 185.707 1.98773 185.687 2.25216V21.7033C185.687 22.7973 184.664 23.3908 182.618 23.4838V23.9443H193.887V23.4615C192.398 23.3926 191.375 23.1926 190.817 22.8615C190.56 22.7307 190.346 22.5306 190.198 22.2839C190.05 22.0371 189.974 21.7538 189.98 21.4661V11.4977L191.654 11.5647C193.568 11.6354 194.905 12.1312 195.664 13.0522C196.423 13.9731 196.865 15.4959 196.99 17.6205C197.127 20.1638 197.5 21.9033 198.106 22.8391C198.713 23.7749 199.795 24.2401 201.354 24.2345C201.757 24.2518 202.16 24.1865 202.536 24.0425C202.913 23.8985 203.256 23.6789 203.545 23.3973C204.103 22.8391 204.517 21.9154 204.787 20.6261L204.31 20.5563C204.188 21.1586 203.953 21.7324 203.618 22.2475ZM189.96 10.7108V2.14053C189.96 1.48007 190.13 0.998206 190.471 0.694951C190.811 0.391695 191.356 0.240997 192.106 0.242857H192.567C194.14 0.242857 195.305 0.647509 196.06 1.45681C196.816 2.26611 197.188 3.61216 197.177 5.49495C197.177 8.99448 195.437 10.7452 191.958 10.747C191.069 10.747 190.403 10.735 189.96 10.7108Z" fill="#18181B"/>
<path d="M213.784 19.694C213.56 19.4575 213.29 19.27 212.99 19.1432C212.691 19.0164 212.368 18.9531 212.042 18.9572C211.388 18.9707 210.765 19.2364 210.302 19.6987C209.839 20.161 209.573 20.7842 209.559 21.4382C209.555 21.7678 209.619 22.0947 209.746 22.3989C209.874 22.7031 210.061 22.9782 210.298 23.2075C210.522 23.4447 210.793 23.6333 211.093 23.7615C211.393 23.8896 211.716 23.9547 212.042 23.9526C212.369 23.9565 212.692 23.8923 212.992 23.764C213.292 23.6357 213.561 23.4461 213.784 23.2075C214.016 22.9758 214.2 22.6999 214.324 22.396C214.449 22.0921 214.511 21.7664 214.507 21.4382C214.51 21.1137 214.447 20.792 214.323 20.4923C214.199 20.1926 214.016 19.921 213.784 19.694Z" fill="#18181B"/>
<path d="M11.9693 15.4772L2.08465 0H0V23.9526H2.99163V6.75628L11.026 19.3395H12.9126L20.947 6.75628V23.9526H23.9358V0H21.8512L11.9693 15.4772Z" fill="#18181B"/>
<path d="M68.3275 12.1228L62.8606 18.4549V0H59.8745V23.9526H61.9173L62.1545 23.6735L62.1573 23.6763L77.8243 5.53116V23.9526H80.8075V0H78.7675L68.3275 12.1228Z" fill="#18181B"/>
<path d="M89.8128 0.00537014H86.8184V23.9412H89.8128V0.00537014Z" fill="#18181B"/>
<path d="M40.9201 0L29.8745 23.9526H32.9527L41.9024 4.5907L50.8522 23.9526H53.9303L42.8847 0H40.9201Z" fill="#18181B"/>
<path d="M95.7739 0.0195308V0.608368H96.5497C97.081 0.634514 97.601 0.771392 98.0763 1.01023C98.2989 1.14834 98.4792 1.34511 98.5973 1.57895C98.7155 1.81278 98.7669 2.07465 98.746 2.33581V21.8707C98.746 22.92 97.7553 23.4902 95.7739 23.5814V23.9721H106.711V23.5814C105.914 23.5662 105.121 23.4566 104.35 23.2549C103.911 23.1612 103.509 22.941 103.194 22.6214C102.988 22.346 102.884 22.0078 102.899 21.6642V11.9637C103.532 11.9637 104.42 11.9637 104.78 11.9637C105.059 11.9637 105.338 11.9498 105.633 11.9637C108.593 11.9637 110.14 13.3591 110.274 16.1498H110.752V7.17209H110.283C110.264 7.78855 110.148 8.3981 109.937 8.97767C109.773 9.4325 109.523 9.85136 109.2 10.2112C108.899 10.5301 108.538 10.7854 108.137 10.9619C107.73 11.15 107.299 11.2814 106.856 11.3526C106.377 11.4237 105.894 11.4582 105.41 11.4558C105.201 11.4558 104.997 11.4558 104.788 11.4558C104.378 11.4558 103.473 11.4698 102.907 11.4558V2.46697C102.907 1.80465 103.122 1.33209 103.552 1.0493C103.981 0.766508 104.801 0.623252 106.01 0.619531H106.87C108.509 0.619531 109.851 1.09302 110.897 2.04C111.942 2.98697 112.774 4.66139 113.392 7.06325L113.788 6.99627V0.0195308H95.7739Z" fill="#18181B"/>
<path d="M158.668 0.0195308V6.7786L159.114 6.84558C159.823 4.53488 160.661 2.92651 161.626 2.02046C162.592 1.11441 164.038 0.661391 165.966 0.661391H166.979V21.6614C166.979 22.3107 166.761 22.7758 166.326 23.0567C165.89 23.3358 165.123 23.4977 164.023 23.5535V23.9637H168.488C168.963 23.9637 169.44 23.9637 169.917 23.9637H174.382V23.5535C173.236 23.4846 172.44 23.294 171.994 22.9814C171.547 22.6688 171.324 22.1591 171.324 21.4521V0.661391H172.571C173.396 0.644356 174.219 0.753525 175.01 0.985112C175.689 1.20382 176.305 1.5818 176.808 2.08744C177.353 2.64186 177.802 3.28319 178.136 3.98511C178.572 4.90848 178.934 5.86497 179.219 6.84558L179.632 6.7786V0.0195308H158.668ZM159.036 3.87069V3.76186C159.045 3.79814 159.042 3.83441 159.036 3.87069ZM179.305 4.22511V4.29488C179.304 4.27164 179.304 4.24835 179.305 4.22511Z" fill="#18181B"/>
<path d="M116.696 0.0195308V0.549763C117.812 0.583252 118.603 0.733019 119.068 0.999066C119.294 1.1336 119.479 1.32877 119.6 1.56252C119.721 1.79627 119.775 2.05929 119.754 2.32186V21.7423C119.774 22.001 119.72 22.26 119.599 22.4893C119.477 22.7185 119.293 22.9085 119.068 23.0372C118.608 23.2995 117.818 23.4474 116.696 23.4809V23.9414H132.868C133.035 23.9414 133.208 23.9414 133.379 23.9414H134.774V16.0074H134.679L134.358 15.9795C134.088 17.0756 133.745 18.1524 133.331 19.2028C133.043 19.9569 132.668 20.6751 132.215 21.3433C131.846 21.8662 131.371 22.3047 130.82 22.6298C130.316 22.9283 129.764 23.1387 129.19 23.2521C128.519 23.3682 127.839 23.4224 127.158 23.414H127.083C125.986 23.414 125.199 23.2688 124.73 22.9786C124.499 22.8358 124.31 22.6324 124.186 22.3904C124.062 22.1484 124.006 21.8771 124.024 21.6056V11.9888H125.015C125.464 11.9888 125.955 11.9888 126.536 11.9888C129.583 11.9888 131.175 13.3581 131.311 16.0967H131.754V7.24744H131.311C131.29 7.97473 131.123 8.69041 130.82 9.35162C130.571 9.88609 130.172 10.3369 129.673 10.6493C129.198 10.9344 128.681 11.1417 128.14 11.2633C127.535 11.3881 126.917 11.448 126.299 11.4419C125.86 11.4586 125.439 11.4419 125.015 11.4419H124.024V2.46139C124.005 2.1868 124.061 1.91223 124.185 1.66665C124.31 1.42106 124.498 1.21357 124.73 1.06604C125.121 0.820461 125.743 0.680926 126.569 0.641856V0.622321H127.407C128.214 0.611974 129.02 0.70577 129.804 0.901391C130.486 1.09108 131.123 1.41876 131.673 1.86418C132.322 2.39768 132.85 3.06252 133.222 3.81488C133.726 4.84846 134.122 5.93144 134.403 7.04651L134.793 6.97953V0.0195308H116.696Z" fill="#18181B"/>
</svg>
