<svg width="1376" height="154" viewBox="0 0 1376 154" fill="none" xmlns="http://www.w3.org/2000/svg">
<path d="M990.276 82.0778C986.73 78.7477 982.828 75.8152 978.64 73.3328C974.238 70.7088 969.635 68.4352 964.874 66.5332C960.059 64.6057 955.243 62.714 950.428 60.8936C945.612 59.0732 941.029 57.1457 936.661 55.1112C932.584 53.2461 928.684 51.0181 925.008 48.4543C921.703 46.1514 918.951 43.1464 916.952 39.6558C914.365 34.9999 913.427 29.6103 914.291 24.3577C915.155 19.1052 917.77 14.2964 921.714 10.7082C927.179 5.76677 934.373 3.16448 941.745 3.46238C946.619 3.44357 951.45 4.35844 955.977 6.15725C960.698 8.10126 965.019 10.8964 968.723 14.4025C973.192 18.7045 976.87 23.7543 979.589 29.3225C983.043 36.2344 985.64 43.54 987.323 51.0778H990.115V0.214245H984.745C983.921 4.28333 981.63 5.19352 977.226 5.19352C972.604 4.65643 968.022 3.80977 963.514 2.65927C956.667 1.07086 949.669 0.221223 942.641 0.125012C936.536 0.114135 930.457 0.90623 924.56 2.4808C918.887 3.9891 913.461 6.30315 908.449 9.35184C903.605 12.312 899.552 16.3961 896.634 21.2557C893.623 26.2725 892.074 32.0258 892.158 37.8711C892.099 42.8979 893.131 47.8779 895.184 52.4699C897.072 56.731 899.813 60.563 903.239 63.7312C906.802 66.9509 910.683 69.8031 914.822 72.2442C919.267 74.9023 923.89 77.2518 928.659 79.2758C933.517 81.3461 938.368 83.3628 943.213 85.3259C948.065 87.2891 952.665 89.395 957.033 91.608C961.1 93.6385 964.976 96.0276 968.616 98.7468C971.9 101.204 974.642 104.308 976.671 107.867C978.717 111.472 979.762 115.557 979.697 119.699C979.763 123.722 978.968 127.712 977.366 131.405C975.764 135.098 973.391 138.408 970.406 141.115C964.212 146.969 956.264 149.902 946.561 149.914C940.194 150.05 933.87 148.838 928.007 146.358C922.144 143.879 916.875 140.188 912.548 135.529C903.394 126.011 897.427 112.923 894.646 96.2661H891.388V153.376H894.969C895.562 151.289 896.764 149.425 898.424 148.022C899.93 146.912 901.76 146.322 903.633 146.344C906.432 146.545 909.187 147.146 911.814 148.129C916.419 149.589 921.105 150.78 925.849 151.698C932.546 152.957 939.352 153.554 946.167 153.483C954.031 153.564 961.851 152.315 969.296 149.789C975.699 147.681 981.628 144.346 986.75 139.973C991.198 136.103 994.847 131.405 997.491 126.142C999.966 121.209 1001.26 115.773 1001.29 110.258C1001.36 104.809 1000.36 99.3991 998.332 94.3386C996.558 89.7241 993.811 85.543 990.276 82.0778Z" fill="#F4F4F5"/>
<path d="M1306.15 142.276C1305.54 143.215 1304.71 143.991 1303.73 144.536C1302.75 145.08 1301.65 145.376 1300.53 145.399C1294.72 145.399 1291.48 137.118 1290.83 120.556C1290.68 113.686 1289.83 106.85 1288.27 100.157C1286.97 94.8351 1284.63 89.82 1281.39 85.3977C1278.11 81.0406 1273.68 77.6839 1268.59 75.7068C1262.2 73.3197 1255.46 71.9875 1248.63 71.7627C1263.68 69.514 1275.02 65.1772 1282.64 58.7523C1290.27 52.3274 1294.07 44.6354 1294.05 35.6763C1294.05 24.0045 1289.79 15.1405 1281.28 9.08448C1273.1 3.24856 1260.09 0.303825 1242.47 0.161051V0.0718142H1171.44V3.03439C1178.6 3.24856 1183.67 4.21229 1186.64 5.92559C1188.11 6.77553 1189.31 8.02141 1190.11 9.52061C1190.9 11.0198 1191.26 12.7118 1191.13 14.4028V138.795C1191.13 145.791 1184.57 149.587 1171.44 150.182V153.127H1243.73V150.039C1234.18 149.599 1227.62 148.32 1224.03 146.202C1222.39 145.366 1221.02 144.086 1220.07 142.508C1219.12 140.93 1218.63 139.118 1218.66 137.278V73.5295L1229.41 73.9578C1241.69 74.41 1250.26 77.5807 1255.13 83.4702C1260 89.3597 1262.83 99.0981 1263.63 112.686C1264.52 128.95 1266.9 140.074 1270.79 146.059C1274.68 152.044 1281.63 155.018 1291.63 154.983C1294.22 155.093 1296.8 154.675 1299.21 153.755C1301.63 152.834 1303.83 151.43 1305.68 149.629C1309.26 146.059 1311.92 140.152 1313.65 131.907L1310.59 131.46C1309.81 135.312 1308.3 138.981 1306.15 142.276ZM1218.54 68.4967V13.689C1218.54 9.46521 1219.63 6.38366 1221.82 4.4443C1224 2.50494 1227.5 1.54121 1232.31 1.5531H1235.26C1245.36 1.5531 1252.83 4.1409 1257.67 9.31649C1262.52 14.4921 1264.9 23.1002 1264.83 35.1409C1264.83 57.5209 1253.67 68.7168 1231.36 68.7287C1225.65 68.7287 1221.38 68.6514 1218.54 68.4967Z" fill="#F4F4F5"/>
<path d="M1371.36 125.945C1369.93 124.433 1368.19 123.234 1366.27 122.423C1364.35 121.612 1362.28 121.207 1360.19 121.234C1356 121.32 1352 123.019 1349.03 125.975C1346.06 128.932 1344.35 132.917 1344.26 137.1C1344.24 139.208 1344.65 141.299 1345.46 143.244C1346.28 145.189 1347.48 146.949 1349 148.415C1350.44 149.932 1352.18 151.138 1354.1 151.958C1356.03 152.777 1358.1 153.193 1360.19 153.18C1362.28 153.205 1364.36 152.794 1366.28 151.974C1368.21 151.153 1369.94 149.941 1371.36 148.415C1372.85 146.933 1374.03 145.169 1374.83 143.225C1375.63 141.282 1376.02 139.199 1376 137.1C1376.02 135.025 1375.62 132.967 1374.82 131.051C1374.03 129.134 1372.85 127.397 1371.36 125.945Z" fill="#F4F4F5"/>
<path d="M76.7797 98.9787L13.3724 0H0V153.18H19.1904V43.2073L70.7289 123.679H82.8304L134.369 43.2073V153.18H153.541V0H140.169L76.7797 98.9787Z" fill="#F4F4F5"/>
<path d="M438.302 77.5268L403.233 118.021V0H384.078V153.18H397.182L398.703 151.395L398.721 151.413L499.22 35.3725V153.18H518.357V0H505.271L438.302 77.5268Z" fill="#F4F4F5"/>
<path d="M576.123 0.0343427H556.915V153.107H576.123V0.0343427Z" fill="#F4F4F5"/>
<path d="M262.491 0L191.636 153.18H211.382L268.792 29.3581L326.202 153.18H345.948L275.093 0H262.491Z" fill="#F4F4F5"/>
<path d="M614.362 0.124902V3.89059H619.339C622.747 4.0578 626.082 4.93315 629.131 6.46054C630.559 7.34376 631.716 8.60213 632.474 10.0976C633.232 11.593 633.562 13.2677 633.427 14.9378V139.866C633.427 146.576 627.072 150.223 614.362 150.806V153.305H684.518V150.806C679.405 150.709 674.322 150.008 669.374 148.718C666.559 148.119 663.982 146.711 661.963 144.667C660.64 142.906 659.97 140.743 660.065 138.545V76.5095C664.129 76.5095 669.821 76.5095 672.131 76.5095C673.921 76.5095 675.711 76.4202 677.608 76.5095C696.596 76.5095 706.519 85.4329 707.379 103.28H710.44V45.8664H707.432C707.315 49.8087 706.565 53.7069 705.213 57.4133C704.162 60.322 702.558 63.0007 700.487 65.3017C698.559 67.3413 696.239 68.9739 693.666 70.1025C691.055 71.3056 688.29 72.1463 685.449 72.601C682.38 73.0559 679.28 73.2767 676.176 73.2614C674.834 73.2614 673.527 73.2614 672.184 73.2614C669.553 73.2614 663.753 73.3506 660.119 73.2614V15.7766C660.119 11.5409 661.497 8.51888 664.254 6.7104C667.011 4.90191 672.268 3.98577 680.025 3.96198H685.539C696.053 3.96198 704.664 6.99 711.371 13.046C718.078 19.1021 723.413 29.8102 727.375 45.1704L729.917 44.7421V0.124902H614.362Z" fill="#F4F4F5"/>
<path d="M1017.81 0.124902V43.35L1020.67 43.7783C1025.22 29.0011 1030.59 18.7154 1036.79 12.9211C1042.98 7.12682 1052.26 4.22968 1064.62 4.22968H1071.12V138.527C1071.12 142.68 1069.72 145.654 1066.93 147.451C1064.14 149.235 1059.22 150.271 1052.16 150.628V153.251H1080.81C1083.85 153.251 1086.91 153.251 1089.97 153.251H1118.61V150.628C1111.26 150.187 1106.15 148.968 1103.29 146.969C1100.43 144.97 1098.99 141.71 1098.99 137.189V4.22968H1107C1112.29 4.12074 1117.56 4.81889 1122.64 6.29991C1126.99 7.69861 1130.95 10.1158 1134.17 13.3494C1137.67 16.895 1140.55 20.9964 1142.69 25.4853C1145.49 31.3904 1147.81 37.5072 1149.64 43.7783L1152.29 43.35V0.124902H1017.81ZM1020.17 24.7536V24.0575C1020.23 24.2896 1020.21 24.5216 1020.17 24.7536ZM1150.19 27.0201V27.4663C1150.18 27.3177 1150.18 27.1687 1150.19 27.0201Z" fill="#F4F4F5"/>
<path d="M748.57 0.124902V3.51581C755.731 3.72997 760.803 4.68775 763.786 6.38915C765.239 7.24953 766.421 8.49765 767.199 9.99251C767.977 11.4874 768.32 13.1694 768.19 14.8486V139.045C768.318 140.699 767.972 142.356 767.192 143.822C766.413 145.288 765.232 146.503 763.786 147.326C760.839 149.003 755.767 149.949 748.57 150.163V153.108H852.31C853.384 153.108 854.494 153.108 855.586 153.108H864.536V102.37H863.928L861.869 102.191C860.136 109.201 857.935 116.087 855.281 122.804C853.431 127.627 851.028 132.22 848.121 136.493C845.756 139.837 842.705 142.641 839.17 144.72C835.937 146.629 832.402 147.975 828.715 148.7C824.412 149.443 820.05 149.789 815.683 149.735H815.2C808.164 149.735 803.116 148.807 800.109 146.951C798.623 146.038 797.416 144.737 796.617 143.19C795.819 141.642 795.46 139.906 795.58 138.17V76.6701H801.935C804.817 76.6701 807.967 76.6701 811.691 76.6701C831.239 76.6701 841.449 85.427 842.32 102.941H845.167V46.3483H842.32C842.189 50.9994 841.117 55.5762 839.17 59.8048C837.575 63.2228 835.019 66.1057 831.812 68.1036C828.768 69.9269 825.45 71.2524 821.984 72.0299C818.098 72.8285 814.137 73.2114 810.169 73.1721C807.359 73.2792 804.656 73.1721 801.935 73.1721H795.58V15.7409C795.459 13.9849 795.816 12.229 796.614 10.6584C797.411 9.08787 798.618 7.76091 800.109 6.81748C802.615 5.24695 806.607 4.35461 811.906 4.10475V3.97982H817.276C822.458 3.91365 827.626 4.51349 832.654 5.76451C837.032 6.97759 841.114 9.07318 844.648 11.9217C848.806 15.3334 852.193 19.5852 854.583 24.3966C857.816 31.0065 860.354 37.9323 862.155 45.0633L864.662 44.635V0.124902H748.57Z" fill="#F4F4F5"/>
</svg>
