<svg width="1441" height="163" viewBox="0 0 1441 163" fill="none" xmlns="http://www.w3.org/2000/svg">
<path d="M1037.05 86.1965C1033.49 82.823 1029.42 79.7681 1024.87 77.013C1020.29 74.2767 1015.5 71.8965 1010.45 69.8537C1005.41 67.8296 1000.37 65.8617 995.323 63.95C990.28 62.0384 985.481 60.0143 980.907 57.859C976.333 55.7224 972.264 53.3984 968.721 50.8683C965.159 48.3569 962.347 45.2833 960.285 41.6286C958.223 37.9927 957.173 33.907 957.173 29.409C957.173 22.3434 959.873 16.2898 965.272 11.2295C970.671 6.16923 977.664 3.62036 986.25 3.62036C991.48 3.62036 996.448 4.55744 1001.14 6.43162C1005.82 8.30579 1010.28 11.192 1014.5 15.109C1018.72 19.0073 1022.51 24.2363 1025.88 30.7584C1029.24 37.2993 1031.94 44.9084 1033.96 53.6233H1036.89V0.2281H1031.28C1030.42 4.50122 1028.02 5.45705 1023.41 5.45705C1021.85 5.45705 1017.05 4.57618 1009.05 2.81446C1001.04 1.05274 993.749 0.171875 987.187 0.171875C980.626 0.171875 974.383 0.996512 968.252 2.64579C962.122 4.29506 956.498 6.694 951.361 9.86136C946.243 13.01 942.119 17.1894 938.988 22.3621C935.857 27.5348 934.301 33.3635 934.301 39.8107C934.301 45.377 935.351 50.4747 937.47 55.1227C939.588 59.7706 942.4 63.7251 945.906 66.9487C949.43 70.1723 953.461 73.1522 958.035 75.9073C962.61 78.6436 967.428 81.0987 972.508 83.2915C977.589 85.4656 982.669 87.5834 987.75 89.6637C992.83 91.7253 997.667 93.9181 1002.22 96.2421C1006.8 98.566 1010.85 101.059 1014.35 103.739C1017.88 106.4 1020.69 109.586 1022.79 113.316C1024.91 117.027 1025.96 121.15 1025.96 125.648C1025.96 134.438 1022.71 141.897 1016.23 148.063C1009.74 154.229 1001.42 157.303 991.255 157.303C977.101 157.303 965.253 152.28 955.673 142.216C946.093 132.151 939.869 118.414 936.964 101.002H933.57V160.92H937.264C937.807 158.971 939.288 156.516 940.9 155.354C942.494 154.192 944.312 153.611 946.356 153.611C948.399 153.611 951.249 154.21 954.923 155.41C958.598 156.609 963.491 157.827 969.64 159.064C975.77 160.301 982.875 160.92 990.918 160.92C999.673 160.92 1007.73 159.627 1015.12 157.04C1022.51 154.454 1028.6 151.005 1033.42 146.732C1038.24 142.459 1041.97 137.605 1044.61 132.207C1047.27 126.81 1048.6 121.244 1048.6 115.546C1048.6 109.399 1047.57 103.814 1045.49 98.8284C1043.41 93.8431 1040.6 89.645 1037.05 86.2714V86.1965Z" fill="white" fill-opacity="0.6"/>
<path d="M1367.85 149.409C1366.22 151.583 1364.25 152.689 1361.96 152.689C1355.87 152.689 1352.48 143.993 1351.8 126.601C1351.5 118.167 1350.6 111.026 1349.12 105.179C1347.64 99.3125 1345.24 94.1585 1341.92 89.6605C1338.62 85.1812 1334.14 81.789 1328.5 79.5025C1322.86 77.216 1315.9 75.8291 1307.59 75.3606C1323.36 72.9804 1335.21 68.4261 1343.16 61.6978C1351.11 54.9508 1355.08 46.8731 1355.08 37.4647C1355.08 25.2076 1350.62 15.9117 1341.71 9.53955C1333.15 3.42974 1319.5 0.31861 1301.07 0.0937087V0H1226.74V3.09239C1234.27 3.31729 1239.58 4.32934 1242.67 6.12855C1245.75 7.92776 1247.3 10.889 1247.3 15.0309V145.661C1247.3 153.008 1240.46 157 1226.76 157.618V160.71H1302.46V157.618C1292.41 157.15 1285.49 155.819 1281.74 153.589C1277.97 151.358 1276.08 148.266 1276.08 144.274V77.1785L1287.27 77.6471C1300.13 78.0969 1309.11 81.4329 1314.21 87.6364C1319.31 93.8399 1322.27 104.073 1323.12 118.317C1324.04 135.39 1326.51 147.085 1330.54 153.364C1334.57 159.642 1341.85 162.791 1352.34 162.791C1358.44 162.791 1363.35 160.917 1367.08 157.168C1370.81 153.42 1373.58 147.216 1375.42 138.558L1372.22 138.089C1370.92 143.449 1369.46 147.216 1367.83 149.409H1367.85ZM1276.1 71.9308V14.3749C1276.1 9.93313 1277.24 6.6908 1279.53 4.66669C1281.82 2.64259 1285.51 1.63053 1290.61 1.63053H1293.68C1304.26 1.63053 1312.09 4.34808 1317.16 9.78319C1322.22 15.2183 1324.75 24.2518 1324.75 36.9025C1324.75 60.4234 1313.07 72.1745 1289.69 72.1745C1283.6 72.1745 1279.08 72.0995 1276.1 71.9496V71.9308Z" fill="white" fill-opacity="0.6"/>
<path d="M1436.15 132.245C1432.9 128.946 1429 127.297 1424.45 127.297C1419.89 127.297 1416.05 128.965 1412.75 132.301C1409.43 135.637 1407.78 139.516 1407.78 143.958C1407.78 148.4 1409.43 152.523 1412.75 155.859C1416.05 159.195 1419.97 160.863 1424.45 160.863C1428.93 160.863 1432.92 159.195 1436.15 155.859C1439.39 152.523 1441 148.569 1441 143.958C1441 139.348 1439.39 135.524 1436.15 132.245Z" fill="white" fill-opacity="0.6"/>
<path d="M80.4065 103.923L14.0041 0H0V160.86H20.097V45.3738L74.07 129.88H86.7243L140.716 45.3738V160.86H160.794V0H146.79L80.4065 103.923Z" fill="white" fill-opacity="0.6"/>
<path d="M459.004 81.4141L422.259 123.939V0H402.219V160.86H415.923L417.535 158.986L417.554 159.005L522.8 37.1461V160.86H542.841V0H529.137L459.004 81.4141Z" fill="white" fill-opacity="0.6"/>
<path d="M603.338 0.0390625H583.223V160.787H603.338V0.0390625Z" fill="white" fill-opacity="0.6"/>
<path d="M274.889 0L200.688 160.86H221.366L281.469 30.8302L341.61 160.86H362.288L288.087 0H274.889Z" fill="white" fill-opacity="0.6"/>
<path d="M762.034 0.149975H761.246V0.112492H643.383V4.04826H648.595C653.206 4.5168 656.637 5.41641 658.868 6.74707C661.868 8.54628 663.367 11.5075 663.367 15.6494V146.729C663.367 153.776 656.712 157.599 643.402 158.218V160.842H716.947V158.218C710.216 157.918 704.93 157.187 701.087 156.044C697.243 154.901 694.656 153.476 693.325 151.789C691.994 150.103 691.338 147.966 691.338 145.361V80.3459C695.612 80.3459 701.574 80.3834 703.974 80.4021C705.886 80.4396 707.798 80.3272 709.729 80.4021C729.62 80.4021 740.006 89.7543 740.905 108.477H744.13V48.1663H740.905C740.681 52.8143 739.912 56.8438 738.581 60.2922C737.25 63.7407 735.6 66.4958 733.65 68.5948C731.682 70.6752 729.301 72.3619 726.489 73.6364C723.677 74.9108 720.809 75.7729 717.884 76.2415C714.959 76.71 711.735 76.9349 708.173 76.9349C706.767 76.9911 705.38 76.8974 703.974 76.9349C701.218 76.9911 695.144 77.0474 691.338 76.9911V16.5677C691.338 12.126 692.782 8.93985 695.669 7.0282C698.556 5.11654 704.067 4.16071 712.204 4.16071H717.978C729.001 4.16071 738.018 7.34681 745.049 13.7003C752.079 20.0537 757.647 31.3175 761.79 47.4729L764.452 47.0043V0.09375H762.109V0.131233L762.034 0.149975Z" fill="white" fill-opacity="0.6"/>
<path d="M1074.25 0.185921H1065.87V45.5222L1068.87 45.972C1073.63 30.4351 1079.24 19.6399 1085.67 13.5488C1092.08 7.45772 1101.81 4.42156 1114.8 4.42156H1121.61V145.472C1121.61 149.839 1120.14 152.931 1117.22 154.768C1114.3 156.605 1109.14 157.71 1101.75 158.104V160.859H1131.8C1135.01 160.859 1138.22 160.859 1141.4 160.859H1171.46V158.104C1163.77 157.654 1158.43 156.361 1155.41 154.262C1152.41 152.163 1150.91 148.733 1150.91 143.991V4.4403H1159.21C1165.61 4.4403 1171.06 5.17123 1175.6 6.61434C1180.14 8.0762 1184.15 10.5314 1187.65 14.0173C1191.16 17.5033 1194.14 21.7389 1196.6 26.7617C1199.05 31.7658 1201.49 38.1754 1203.87 45.9908L1206.64 45.5409V0.148438L1199.09 0.185921H1074.23H1074.25ZM1068.36 25.9933V25.2811H1068.46C1068.42 25.5248 1068.4 25.7497 1068.36 25.9933ZM1204.51 28.3735V28.8421C1204.49 28.6734 1204.47 28.5422 1204.45 28.3735H1204.51Z" fill="white" fill-opacity="0.6"/>
<path d="M902.039 0.148438H783.895V3.69063C791.431 3.91553 796.736 4.92758 799.83 6.72679C802.904 8.526 804.46 11.4872 804.46 15.5916V145.997C804.46 150.045 802.923 152.95 799.83 154.693C796.736 156.455 791.431 157.448 783.895 157.673V160.765H890.153C890.96 160.784 891.691 160.803 892.534 160.821C893.659 160.859 894.803 160.821 895.946 160.765H905.376V160.428H905.432V107.464H904.776L902.639 107.276C900.427 115.822 898.121 123.038 895.74 128.923C893.34 134.808 890.81 139.587 888.147 143.298C885.485 147.009 882.373 149.876 878.849 151.938C875.306 153.999 871.65 155.386 867.882 156.117C864.114 156.848 859.558 157.204 854.234 157.204H853.784C846.398 157.204 841.13 156.23 837.961 154.281C834.793 152.331 833.218 149.258 833.218 145.06V80.4756C835.618 80.4568 838.767 80.4381 839.874 80.4193V80.3818C842.873 80.3444 846.191 80.3256 850.072 80.3256C870.544 80.3256 881.248 89.5278 882.148 107.913H885.11V48.6146H882.148C881.848 54.1809 880.742 58.9038 878.83 62.7459C876.918 66.6067 874.35 69.4929 871.125 71.442C867.882 73.3912 864.47 74.7593 860.852 75.5652C857.233 76.3711 853.109 76.7647 848.46 76.7647C845.516 76.8771 842.704 76.8022 839.855 76.7647C839.18 76.7647 838.505 76.7647 837.83 76.7647C837.324 76.7647 835.093 76.7647 833.2 76.7647V16.5287C833.2 12.2556 834.774 9.12573 837.943 7.13911C840.567 5.48984 844.748 4.57149 850.297 4.29036V4.15917H855.846C862.164 4.15917 867.526 4.75891 871.95 5.93964C876.374 7.12037 880.555 9.27567 884.51 12.4055C888.466 15.5354 891.916 19.9397 894.84 25.6372C897.765 31.316 900.408 38.5503 902.77 47.3402L905.395 46.8904V0.148438H902.002H902.039Z" fill="white" fill-opacity="0.6"/>
</svg>
