<svg width="20" height="35" viewBox="0 0 20 35" fill="none" xmlns="http://www.w3.org/2000/svg">
<path d="M8.65534 0.845263C8.54665 0.432186 8.97099 0.11073 9.32872 0C10.5599 0.814897 11.6464 1.82246 12.7548 2.78761C12.924 2.5782 13.088 2.25464 13.4088 2.27977C15.5882 3.5067 17.5247 5.2789 18.64 7.52046C19.6611 9.63113 19.8475 12.0428 19.5945 14.3407C19.2306 17.4798 18.3921 20.5423 17.4438 23.5535C17.33 23.8194 17.2951 24.1841 17.0019 24.3252C16.4638 24.4854 15.9225 24.6385 15.3709 24.7472C14.9465 24.7563 15.1474 25.2791 15.0981 25.549C15.6282 25.5652 16.312 25.4574 16.6359 25.9843C16.8266 26.488 16.3745 26.9523 15.9481 27.1649C15.9254 27.8065 16.2065 28.4444 16.7128 28.8544C17.1505 29.2614 17.8364 29.5193 17.943 30.1732C18.0434 30.7352 17.578 31.1936 17.0879 31.3912C17.6374 31.5896 18.2884 31.7459 18.5937 32.2899C18.7301 32.6414 18.6459 33.0304 18.6646 33.399C18.6933 33.6629 18.5537 33.9943 18.2514 34.0165C12.848 34.0215 7.44467 34.0165 2.04104 34.0197C1.82075 34.0165 1.55624 33.8354 1.58474 33.5966C1.58074 33.2239 1.57968 32.8501 1.60312 32.4794C1.68623 32.1318 2.0112 31.9082 2.31034 31.742C2.55327 31.597 2.86173 31.5868 3.08335 31.4035C2.59642 31.1991 2.11775 30.7365 2.23362 30.1714C2.32579 29.6051 2.862 29.296 3.26395 28.9504C3.80123 28.5091 4.21437 27.8654 4.19173 27.1573C3.93228 26.9479 3.62382 26.712 3.59319 26.3573C3.52233 26.028 3.80229 25.7377 4.10383 25.6511C4.42161 25.5584 4.75671 25.5665 5.08488 25.5361C5.08994 25.3084 5.095 25.0807 5.095 24.8542C4.38059 24.6689 3.6454 24.5752 2.92779 24.4019C2.69312 24.3524 2.41103 24.2056 2.43687 23.9283C2.49121 22.4153 3.00983 20.9292 3.90165 19.6963C4.92772 18.2788 6.242 17.0922 7.60743 15.998C8.26563 15.4731 8.90306 14.9242 9.51412 14.3467C9.81033 14.0627 10.1252 13.7836 10.326 13.4208C9.06502 13.7904 7.74381 13.4399 6.45936 13.5064C5.37176 13.6889 4.7607 14.6993 4.01353 15.3904C3.70906 15.6514 3.38622 15.9778 2.95869 15.998C2.57645 15.8802 2.1918 15.6362 2.01653 15.2705C1.90385 14.7899 2.35882 14.4333 2.45951 13.9902C2.09058 14.3205 1.64441 14.6328 1.12178 14.6179C0.593834 14.5344 0.155118 14.093 0.0903892 13.5671C-0.0265484 12.7632 0.0863936 11.9452 0.014473 11.1374C-0.0758274 10.7073 0.270723 10.3314 0.656165 10.1884C0.925734 10.0898 1.23739 10.0636 1.45155 9.85494C2.30128 9.10339 3.21281 8.42331 4.08411 7.69715C4.47169 7.37177 4.90108 7.08958 5.24763 6.71996C5.47005 6.15793 5.71005 5.59669 6.04222 5.08597C6.17967 4.86844 6.44604 4.79698 6.66953 4.69619C7.55122 4.34961 8.42652 3.9881 9.32553 3.68575C9.1697 2.72557 8.87962 1.79183 8.65507 0.845786L8.65534 0.845263Z" fill="#0C0C0C"/>
</svg>
