<svg width="32" height="23" viewBox="0 0 32 23" fill="none" xmlns="http://www.w3.org/2000/svg">
<path d="M30.3349 18.1522C29.8249 17.6369 29.2014 17.375 28.482 17.375C27.7625 17.375 27.1499 17.6387 26.6302 18.1588C26.1111 18.6777 25.8477 19.2943 25.8477 19.9925C25.8477 20.6906 26.1111 21.3386 26.6302 21.8575C27.1493 22.3776 27.7722 22.6407 28.482 22.6407C29.1917 22.6407 29.8273 22.3764 30.3367 21.8545C30.8437 21.3356 31.1005 20.7093 31.1005 19.9925C31.1005 19.2756 30.8431 18.6662 30.3349 18.1528V18.1522Z" fill="black"/>
<path d="M11.3848 13.8928L2.45763 0H0V22.643H3.44846V7.71057L10.3265 18.4151H12.443L19.3211 7.71057V22.643H22.7695V0H20.3119L11.3848 13.8928Z" fill="black"/>
</svg>
